<?xml version="1.0" encoding="utf-8"?>
<!-- Generator: Adobe Illustrator 21.1.0, SVG Export Plug-In . SVG Version: 6.00 Build 0)  -->
<svg version="1.1" id="Capa_1" xmlns="http://www.w3.org/2000/svg" xmlns:xlink="http://www.w3.org/1999/xlink" x="0px" y="0px"
	 width="1629px" height="387px" viewBox="0 0 1629 387" style="enable-background:new 0 0 1629 387;" xml:space="preserve">
<style type="text/css">
	.st0{fill:#0255B2;}
</style>
<g>
	<g>
		<g>
			<path class="st0" d="M1570.8,207.2c0-23.3,0-44.7,0-67c12.6,0,23.5,0,34,0c4.1,4.3,2.9,9.2,2.9,13.8
				c0.1,67.4-0.2,134.7,0.3,202.1c0.1,11.4-3.4,16.6-14.6,19.3c-25.4,6.2-50.8,9.1-76.4,2.5c-31.5-8.1-50.5-28-56.2-60.3
				c-2.6-15.1-3.6-30.1-1.1-45.4c8.3-49.7,42.4-75.1,92.5-68.3C1557.4,204.6,1562.5,205.7,1570.8,207.2z M1570.4,293.4
				c0-10.5,0-21.1,0-31.6c0-24.4-6.2-29.8-31-27.3c-19.2,1.9-34.9,15.4-40,34.1c-3.7,13.8-4.2,27.7-1.6,41.7
				c5.5,30.2,33.6,47.3,63.1,39.1c7.7-2.1,9.9-6.4,9.6-13.9C1570.1,321.5,1570.4,307.4,1570.4,293.4z"/>
			<path class="st0" d="M649.8,275.5c0,24.9,0,46.3,0,69.9c34.4,0,68.1,0,101.5,0c2.9,11.2,1.8,20.4,1,30.9c-46.6,0-93,0-140.4,0
				c0-73.1,0-145.5,0-219.2c46.5,0,92.9,0,140,0c2.6,10,1.1,19.5,0.7,30.5c-34.5,0-67.7,0-102.3,0c0,19,0,36.8,0,56.4
				c29.5,0,59.1,0,88.4,0c3.7,11,1.2,20.2,2.2,31.6C710.3,275.5,680.8,275.5,649.8,275.5z"/>
			<path class="st0" d="M915.2,333.7c23.5,10.5,44.7,16,67.4,13.8c8.9-0.8,17.3-3,24.8-7.8c15.4-10,16.7-27.7,2.6-39.6
				c-16.6-13.9-38-17.5-57-26.3c-21.9-10.2-35.6-26-38.2-50.5c-3.8-37.3,17.5-63.9,55.7-69.6c18.2-2.7,36.2-1.8,53.9,3.3
				c29.4,8.3,30.3,10.1,21.4,41.5c-11.8-4.2-23.2-10-35.7-11.9c-12.3-1.9-24.4-2.4-36.4,1.7c-9.9,3.4-18,8.5-19.7,20
				c-1.8,11.8,3.1,20.3,12.6,26.9c15.6,10.9,34.2,15,51.3,22.3c29.8,12.8,42.8,34.3,39.6,66.3c-2.4,23.1-14.5,39.5-35.5,48.3
				c-33.7,14.1-67.5,11.5-100.6-2.4C902.3,361.5,916.4,348,915.2,333.7z"/>
			<path class="st0" d="M1164.8,275c4.4-28.6-5-40.9-31.3-41.2c-9.3-0.1-18.7,1.1-27.9,2.6c-9.1,1.6-18,4.4-27.2,6.7
				c-5.9-8.6-3.8-18.4-7.1-29c34.7-12.2,69.1-18.4,103.9-3.2c19.7,8.6,27.7,26.8,28.2,47.3c0.9,33.9,0.3,67.9,0.5,101.9
				c0,6.4-0.8,11.7-8.5,12.9c-32.5,5.3-64.7,14.6-97.8,3c-24.6-8.6-34.9-23.6-33.8-50.7c1.1-25.9,12.2-39.6,37.2-46.4
				C1121.7,273.3,1143,277.1,1164.8,275z M1167,300.1c-16.8-3.2-31.4-1.6-45.5,1.6c-16.5,3.8-24.4,20.3-18.2,35.7
				c5.8,14.3,26.8,20.3,51.5,16.3c18-2.9,11.1-16.1,12-26C1167.6,319.1,1167,310.3,1167,300.1z"/>
			<path class="st0" d="M1296,207.4c12.4,0,22.7,0,35.7,0c0,24.8-0.2,49.7,0.1,74.6c0.1,12.8-0.4,25.9,1.6,38.5
				c4.5,27.5,47,42,68.7,24.3c5.6-4.6,4-10.6,4-16.2c0.1-39.7,0.1-79.5,0.1-120.4c11.8-2.7,22.7-1.3,33.1-1.1
				c4.9,3.9,3.5,8.9,3.5,13.4c0.1,44.5-0.4,89,0.3,133.5c0.2,11.5-3.8,17-14.4,19.9c-28.7,7.7-57.5,11.5-86.7,3.9
				c-27.4-7.2-44.5-26.1-45.6-54.3C1294.9,285.4,1296,247.4,1296,207.4z"/>
			<path class="st0" d="M773,338.4c19.7,6.7,35.8,11.9,53,11.1c7.7-0.4,15.2-1.4,22.1-4.7c6.7-3.2,11.3-8.3,11.2-16.3
				c-0.1-7.4-4.7-11.6-10.7-14.8c-12.6-6.8-26.9-7.7-40.3-11.9c-25.4-8-37.4-23.5-36.8-48.7c0.6-25.2,13.4-40.5,39-47.2
				c18.5-4.8,37-4.4,55.5,0.2c27,6.7,28.3,9.4,17.7,38.2c-15.7-6-31.5-12.1-48.8-10c-11.3,1.3-23.3,3.1-25,17.1
				c-1.7,14.8,10.6,17.9,21.2,21.1c11.7,3.5,24,5.4,35.4,9.7c21.1,7.9,30.3,23,30,46.4c-0.3,23.4-9.9,38.4-31.1,45.8
				c-29.4,10.3-59.1,8.2-87.6-2.6C759,364.6,776,351.2,773,338.4z"/>
			<path class="st0" d="M1223,140.2c12.8,0,23.7,0,36.7,0c0,13.1,0,25.2,0,37.4c0,49.2-0.3,98.4,0.2,147.6
				c0.2,20.7,6.9,25.6,27.4,22.1c0.7,0.9,2.1,1.8,2.1,2.6c-0.3,9.3,11.6,20.8-2.9,27.5c-19.5,9-47.7,0.7-56.1-16.2
				c-3.8-7.7-7-16.7-7.1-25.1C1222.8,271.3,1223,206.4,1223,140.2z"/>
		</g>
	</g>
	<g>
		<g>
			<path class="st0" d="M102.4,66.6c12.6-2.7,13.7-12.7,15-23.2c2.4-18.6,12.9-28.6,29.4-29.2c17.3-0.6,28.4,9.2,31.1,28.9
				c1.5,10.6,2.7,20.5,15.5,23.6c-5.7,9.5-14.6,12.7-24.5,18c15.3,19.8,33.9,35.6,52.5,51c11.9,9.9,14.3,17.9,1.5,28.7
				c-15.8-10.3-29.3-24.6-50.4-31.5c14.9,46.9,29.1,91.5,43.2,136.1c-6.4,5.5-14.4,3.3-21.7,7.4c3.5,11,6.7,22.3,10.8,33.3
				c5.9,16,13.1,31.8-5.7,47.7c29.8,8.8,56.7,3.5,83.1,5.4c5.8-17.7,3.8-34.8,6.5-51.3c11.4,3.4,9.9,3.9,16.5,22.9
				c3.2,9.2,2.3,20.2,12.2,31.5c2.4-21.2-0.7-38.9-5.9-54.8c-3.7-11.2-19.9-11-31.3-16.1c-13.8,17.3-27.8,34-40.8,51.4
				c-6.5,8.8-13,12.6-25,5c12.1-22.3,24.4-44.9,37.1-68.3c-6.8-3.5-12.9-6.6-21.6-11.1c22.4-18.7,43.7-36.4,66.4-55.4
				c-22.4-14.7-43.3-28.3-63.5-41.5c-2.5-7.3,3-10.7,4.5-16.6c23.5,6.5,42.1,21.7,66.3,28.9c-0.7-19.3-29-6.8-26.2-27.1
				c9.2-8.4,19.5-6.1,29.3,1.3c26.6-20.9,46.2-14.6,56.1,17.5c17.8,3.1,18.1,3.3,25.5,19.2c-11.5,7.8-21.2,3.6-30.6-5.4
				c-3.4,4.5-6.4,8.4-10.2,13.4c12.7,10.5,26.6,21.7,40.2,33.1c4.3,3.6,8.4,4.5,13.1,1c2.2-1.6,4.7-2.7,7-4.1
				c18.1-10.9,36.3-21.9,56.9-34.4c-13.4-6-18.3-17.1-21.9-27.8c-1.6-4.8,4.3-12.8,8-18.5c7.4-11.6,23.1-15.6,36.3-10.2
				c14.8,6.1,19.4,19.1,15.2,44.5c16.8,0.6,31.6-6.8,47.2-9.9c13.1-2.6,13-2.9,16.6,11.9c-18.9,10-37.9,20.2-57.9,30.8
				c20.3,37.3,46.4,69.6,65.2,107.2c-9.8,9-15.1,10.5-26.7-1.2c-16.1-16-32.2-33.4-55.1-44.8c-19,21.4-24.1,50.4-40.2,77.4
				c50.2,0,97.1,0,142.7,0c5.2,6.8,3.9,12,2.6,18.4c-181.7,0-363.5,0-550.7,0c17.3-29.7,27.7-59.8,35.9-90.7c-8.9-5-17.3,1-26.7-3
				c18.5-51.3,37.1-102.6,57.3-158.6c-27.1,15.1-49.8,27.8-72.1,40.2c-10-8.5-8.4-14.5,0.3-21.5c24.3-19.6,51.7-35.2,74.7-56.5
				c2.3-2.1,4.6-4.2,6.9-6.4C117.6,75.6,106.7,76.7,102.4,66.6z M355.3,324.8c-4.1-0.8-8.1-1.6-13.3-2.7c-1.7,13.3-3.1,26-1.8,39.6
				c17.3,0,34,0,52.3,0c-9.7-34.4-19.1-68.1-29.5-104.9c16.7,7.1,28.1,21.1,46.3,9.8c5.1,33.5,19,62.9,16.1,95.8
				c1.7,0.1,3.4,0.1,5.2,0.2c8.4-40.2,16.9-80.4,25.9-123.6c-19.1,7.6-35,13.1-50.1,20.3c-8.5,4-15,3.5-22.7-1
				c-13.8-8.1-28-15.6-44.7-24.8c6.7,31.8,12.8,60.4,18.8,88.9C357,323.3,356.1,324.1,355.3,324.8z M83,361.3c39.3,0,75.8,0,114.2,0
				c-9.9-22.6-19.7-43.1-27.8-64.3c-5.2-13.7-12.4-21-27.6-16.4c-8.3,2.5-19.6-4-24.9,7.1C105.6,311.5,94.8,335.7,83,361.3z"/>
			<path class="st0" d="M435.6,164.8c-16-10.4-25.4-26-43.8-33.9c1.1,18.9,2.2,36.5,3.4,56c-12.2-9.8-26.2-13.6-32.4-28.8
				c-4-9.9-15.1-12.6-25.5-15.4c-25.5-6.8-47.6,5.2-70.4,11.8c-10.5,3-14.3-4.6-24.1-8.1c34.5-23.2,66.8-45,98.7-66.5
				c0-6-5-7.5-7.3-10.9c-9.4-14.1-8.1-34,3.2-45.1c11.5-11.3,30.1-13.1,43.7-4.3c14.1,9.2,20.3,27.8,11.8,43.1
				c-7.2,13-6.9,18.7,6.2,29.2c18.8,15.2,39.4,28.6,56.2,47.1C447.7,146.1,440.3,153.2,435.6,164.8z"/>
			<path class="st0" d="M362.3,208.7c11.9,0,19.2,0.4,26.4-0.1c5.9-0.5,7.8,3,8.5,7.4c0.7,4.5,3.1,9.5-1.6,13.5
				c-5.4,4.5-8.9,0.2-12.5-2.7C377.1,221.7,371.4,216.6,362.3,208.7z"/>
			<path class="st0" d="M357.8,322.6c-0.1,1.3-0.1,2.5-0.2,3.8c-0.8-0.5-1.5-1-2.3-1.5C356.1,324.1,357,323.3,357.8,322.6z"/>
		</g>
	</g>
</g>
</svg>
